<?xml version="1.0" standalone="no"?>
<!DOCTYPE svg PUBLIC "-//W3C//DTD SVG 20010904//EN"
 "http://www.w3.org/TR/2001/REC-SVG-20010904/DTD/svg10.dtd">
<svg version="1.0" xmlns="http://www.w3.org/2000/svg"
 width="266.000000pt" height="230.000000pt" viewBox="0 0 266.000000 230.000000"
 preserveAspectRatio="xMidYMid meet">

<g transform="translate(0.000000,230.000000) scale(0.100000,-0.100000)"
fill="#FF0000" stroke="none">
<path d="M1012 1810 c-33 -5 -36 -10 -123 -194 -49 -103 -89 -195 -89 -202 0
-11 223 -410 282 -503 10 -17 -9 -68 -45 -115 -14 -19 -15 -18 -32 15 -10 19
-144 245 -297 502 -243 407 -282 468 -301 465 -17 -2 -41 -40 -109 -173 -48
-93 -87 -182 -88 -197 0 -29 548 -1001 578 -1025 12 -10 75 -13 238 -13 122 0
230 3 239 6 9 4 25 24 36 45 23 47 34 48 54 10 32 -62 26 -61 274 -61 167 0
231 3 243 12 8 7 147 241 307 521 264 459 290 509 280 530 -35 65 -221 356
-235 368 -14 12 -113 14 -598 14 -320 0 -596 -2 -614 -5z m373 -403 c0 -10
-59 -107 -65 -107 -7 0 -60 97 -60 109 0 6 28 8 63 7 34 -2 62 -6 62 -9z m605
2 c0 -6 -8 -22 -19 -37 -31 -45 -272 -463 -303 -524 -15 -32 -31 -58 -35 -58
-5 0 -21 21 -37 46 -22 35 -27 50 -19 63 5 9 65 113 133 231 181 315 158 287
224 288 31 0 56 -4 56 -9z"/>
</g>
</svg>
